<svg xmlns="http://www.w3.org/2000/svg" width="920" height="760" viewBox="0 0 920 760">
<style>
  .title { font: 700 26px -apple-system, BlinkMacSystemFont, "Segoe UI", sans-serif; fill: #111827; }
  .subtitle { font: 14px -apple-system, BlinkMacSystemFont, "Segoe UI", sans-serif; fill: #52616f; }
  .panel-title { font: 700 20px -apple-system, BlinkMacSystemFont, "Segoe UI", sans-serif; fill: #1f2933; }
  .tick { font: 12px ui-monospace, SFMono-Regular, Menlo, Consolas, monospace; fill: #52616f; }
  .axis { stroke: #9aa6b2; stroke-width: 1.2; }
  .grid { stroke: #e3e8ef; stroke-width: 1; }
  .series { fill: none; stroke: #1d4ed8; stroke-width: 2; stroke-linejoin: round; stroke-linecap: round; }
</style>
<rect width="100%" height="100%" fill="#ffffff"/>
<text x="28" y="42" class="title">Sentinel influenza: cumulative output vs weekly incidence</text>
<text x="28" y="68" class="subtitle">National aggregate from local parquet files. Each panel uses its own y-scale.</text>

    <text x="28" y="134" class="panel-title">Before: cumulative counts</text>
    <text x="28" y="158" class="subtitle">Old output stored year-to-date cumulative counts; curves mostly ramp upward within each year.</text>
    <line x1="92" y1="186" x2="92" y2="406" class="axis"/>
    <line x1="92" y1="406" x2="872" y2="406" class="axis"/>
    <line x1="92" y1="186" x2="872" y2="186" class="grid"/>
    <line x1="92" y1="296.0" x2="872" y2="296.0" class="grid"/>
    <text x="82" y="190" text-anchor="end" class="tick">2,309,440</text>
    <text x="82" y="300.0" text-anchor="end" class="tick">1,154,720</text>
    <text x="82" y="410" text-anchor="end" class="tick">0</text>
    <path d="M 92.00 250.34 L 93.09 250.27 L 94.18 250.23 L 95.27 250.20 L 96.36 250.18 L 97.45 250.15 L 98.54 250.11 L 99.63 250.06 L 100.72 249.99 L 101.80 249.89 L 102.89 249.74 L 103.98 249.47 L 105.07 248.92 L 106.16 247.87 L 107.25 246.31 L 108.34 404.22 L 109.43 398.58 L 110.52 387.93 L 111.61 370.72 L 112.70 353.80 L 113.79 341.23 L 114.88 333.52 L 115.97 326.95 L 117.06 321.17 L 118.15 316.27 L 119.23 312.45 L 120.32 309.27 L 121.41 307.21 L 122.50 305.89 L 123.59 304.95 L 124.68 303.59 L 125.77 302.15 L 126.86 301.05 L 127.95 300.14 L 129.04 299.26 L 130.13 298.69 L 131.22 298.35 L 132.31 298.15 L 133.40 298.03 L 134.49 297.95 L 135.58 297.88 L 136.66 297.84 L 137.75 297.80 L 138.84 297.80 L 139.93 297.78 L 141.02 297.77 L 142.11 297.76 L 143.20 297.78 L 144.29 297.75 L 145.38 297.74 L 146.47 297.74 L 147.56 297.73 L 148.65 297.71 L 149.74 297.70 L 150.83 297.69 L 151.92 297.67 L 153.01 297.66 L 154.09 297.63 L 155.18 297.59 L 156.27 297.54 L 157.36 297.48 L 158.45 297.35 L 159.54 297.15 L 160.63 296.83 L 161.72 296.44 L 162.81 295.79 L 163.90 294.90 L 164.99 405.06 L 166.08 402.48 L 167.17 396.91 L 168.26 385.21 L 169.35 368.94 L 170.44 354.43 L 171.53 341.05 L 172.61 328.07 L 173.70 314.64 L 174.79 303.81 L 175.88 293.01 L 176.97 284.23 L 178.06 278.49 L 179.15 275.70 L 180.24 273.62 L 181.33 271.42 L 182.42 269.53 L 183.51 268.37 L 184.60 267.84 L 185.69 267.45 L 186.78 267.19 L 187.87 267.03 L 188.96 266.95 L 190.04 266.89 L 191.13 266.84 L 192.22 266.80 L 193.31 266.77 L 194.40 266.75 L 195.49 266.73 L 196.58 266.72 L 197.67 266.71 L 198.76 266.69 L 199.85 266.68 L 200.94 266.68 L 202.03 266.66 L 203.12 266.65 L 204.21 266.62 L 205.30 266.60 L 206.39 266.57 L 207.47 266.54 L 208.56 266.51 L 209.65 266.49 L 210.74 266.46 L 211.83 266.38 L 212.92 266.28 L 214.01 266.10 L 215.10 265.66 L 216.19 264.77 L 217.28 263.13 L 218.37 259.65 L 219.46 252.52 L 220.55 239.98 L 221.64 396.46 L 222.73 380.81 L 223.82 363.29 L 224.91 344.65 L 225.99 330.85 L 227.08 321.88 L 228.17 316.09 L 229.26 312.19 L 230.35 309.41 L 231.44 307.37 L 232.53 305.58 L 233.62 303.68 L 234.71 302.44 L 235.80 301.43 L 236.89 300.69 L 237.98 300.03 L 239.07 298.77 L 240.16 298.12 L 241.25 297.77 L 242.34 297.49 L 243.42 297.25 L 244.51 297.07 L 245.60 296.95 L 246.69 296.87 L 247.78 296.81 L 248.87 296.76 L 249.96 296.71 L 251.05 296.66 L 252.14 296.62 L 253.23 296.86 L 254.32 296.83 L 255.41 296.53 L 256.50 296.50 L 257.59 296.48 L 258.68 296.45 L 259.77 296.42 L 260.85 296.39 L 261.94 296.36 L 263.03 296.34 L 264.12 296.32 L 265.21 296.29 L 266.30 296.25 L 267.39 296.20 L 268.48 296.15 L 269.57 296.09 L 270.66 296.02 L 271.75 295.94 L 272.84 295.86 L 273.93 295.76 L 275.02 295.62 L 276.11 295.41 L 277.20 295.05 L 278.28 294.64 L 279.37 405.05 L 280.46 403.10 L 281.55 398.12 L 282.64 387.47 L 283.73 371.11 L 284.82 352.18 L 285.91 334.56 L 287.00 317.51 L 288.09 300.81 L 289.18 287.45 L 290.27 277.52 L 291.36 270.92 L 292.45 266.34 L 293.54 262.33 L 294.63 259.94 L 295.72 257.94 L 296.80 256.76 L 297.89 256.18 L 298.98 255.85 L 300.07 255.61 L 301.16 255.48 L 302.25 255.39 L 303.34 255.33 L 304.43 255.30 L 305.52 255.28 L 306.61 255.26 L 307.70 255.25 L 308.79 255.24 L 309.88 255.23 L 310.97 255.22 L 312.06 255.21 L 313.15 255.20 L 314.23 255.19 L 315.32 255.18 L 316.41 255.16 L 317.50 255.26 L 318.59 310.31 L 319.68 255.16 L 320.77 256.38 L 321.86 256.28 L 322.95 256.17 L 324.04 255.99 L 325.13 254.35 L 326.22 254.08 L 327.31 253.68 L 328.40 253.03 L 329.49 252.18 L 330.58 251.00 L 331.66 249.44 L 332.75 247.07 L 333.84 243.11 L 334.93 239.16 L 336.02 401.04 L 337.11 393.82 L 338.20 380.27 L 339.29 361.63 L 340.38 343.57 L 341.47 330.08 L 342.56 318.74 L 343.65 310.74 L 344.74 304.31 L 345.83 299.06 L 346.92 294.20 L 348.01 290.54 L 349.09 287.34 L 350.18 284.97 L 351.27 283.07 L 352.36 281.13 L 353.45 279.66 L 354.54 278.70 L 355.63 278.04 L 356.72 277.55 L 357.81 277.23 L 358.90 277.03 L 359.99 276.88 L 361.08 276.76 L 362.17 276.65 L 363.26 276.55 L 364.35 276.46 L 365.44 276.37 L 366.53 276.28 L 367.61 276.19 L 368.70 276.10 L 369.79 276.02 L 370.88 275.95 L 371.97 275.90 L 373.06 275.82 L 374.15 275.73 L 375.24 275.63 L 376.33 275.54 L 377.42 275.44 L 378.51 275.34 L 379.60 275.27 L 380.69 275.15 L 381.78 274.98 L 382.87 274.75 L 383.96 274.50 L 385.04 274.14 L 386.13 273.44 L 387.22 272.22 L 388.31 270.30 L 389.40 266.81 L 390.49 260.73 L 391.58 252.51 L 392.67 398.39 L 393.76 385.91 L 394.85 361.41 L 395.94 336.65 L 397.03 311.02 L 398.12 289.64 L 399.21 275.53 L 400.30 264.82 L 401.39 256.58 L 402.47 250.90 L 403.56 246.81 L 404.65 244.29 L 405.74 242.69 L 406.83 241.74 L 407.92 240.96 L 409.01 240.13 L 410.10 239.56 L 411.19 239.27 L 412.28 239.07 L 413.37 238.88 L 414.46 238.75 L 415.55 238.66 L 416.64 238.61 L 417.73 238.57 L 418.82 238.53 L 419.91 238.49 L 420.99 238.45 L 422.08 238.41 L 423.17 238.39 L 424.26 238.36 L 425.35 238.34 L 426.44 238.32 L 427.53 238.30 L 428.62 238.28 L 429.71 238.25 L 430.80 238.22 L 431.89 238.16 L 432.98 238.09 L 434.07 238.02 L 435.16 237.94 L 436.25 237.88 L 437.34 237.79 L 438.42 237.81 L 439.51 237.59 L 440.60 237.43 L 441.69 237.25 L 442.78 237.01 L 443.87 236.57 L 444.96 235.76 L 446.05 234.18 L 447.14 230.40 L 448.23 225.18 L 449.32 398.56 L 450.41 380.40 L 451.50 354.80 L 452.59 327.75 L 453.68 307.24 L 454.77 294.83 L 455.85 288.85 L 456.94 284.60 L 458.03 281.79 L 459.12 279.84 L 460.21 278.46 L 461.30 277.29 L 462.39 276.47 L 463.48 275.78 L 464.57 274.99 L 465.66 273.79 L 466.75 272.78 L 467.84 272.31 L 468.93 271.96 L 470.02 271.52 L 471.11 271.23 L 472.20 270.99 L 473.28 270.83 L 474.37 270.71 L 475.46 270.62 L 476.55 270.53 L 477.64 270.45 L 478.73 270.36 L 479.82 270.27 L 480.91 270.20 L 482.00 270.11 L 483.09 270.01 L 484.18 269.91 L 485.27 269.79 L 486.36 269.61 L 487.45 269.25 L 488.54 268.70 L 489.63 268.15 L 490.72 268.00 L 491.80 267.25 L 492.89 266.83 L 493.98 266.49 L 495.07 266.11 L 496.16 265.66 L 497.25 265.18 L 498.34 264.31 L 499.43 262.84 L 500.52 260.23 L 501.61 255.70 L 502.70 248.32 L 503.79 238.28 L 504.88 227.30 L 505.97 399.85 L 507.06 391.18 L 508.15 383.25 L 509.23 374.72 L 510.32 368.02 L 511.41 363.76 L 512.50 360.19 L 513.59 357.31 L 514.68 355.02 L 515.77 353.54 L 516.86 352.93 L 517.95 352.67 L 519.04 352.54 L 520.13 352.47 L 521.22 352.43 L 522.31 352.41 L 523.40 352.40 L 524.49 352.39 L 525.58 352.39 L 526.66 352.39 L 527.75 352.39 L 528.84 352.39 L 529.93 352.38 L 531.02 352.38 L 532.11 352.38 L 533.20 352.38 L 534.29 352.38 L 535.38 352.38 L 536.47 352.38 L 537.56 352.38 L 538.65 352.38 L 539.74 352.38 L 540.83 352.38 L 541.92 352.38 L 543.01 352.38 L 544.09 352.38 L 545.18 352.38 L 546.27 352.38 L 547.36 352.38 L 548.45 352.38 L 549.54 352.37 L 550.63 352.37 L 551.72 352.37 L 552.81 352.37 L 553.90 352.36 L 554.99 352.36 L 556.08 352.36 L 557.17 352.35 L 558.26 352.35 L 559.35 352.34 L 560.44 352.33 L 561.53 352.33 L 562.61 352.32 L 563.70 405.99 L 564.79 405.99 L 565.88 405.98 L 566.97 405.97 L 568.06 405.97 L 569.15 405.96 L 570.24 405.96 L 571.33 405.96 L 572.42 405.95 L 573.51 405.95 L 574.60 405.95 L 575.69 405.94 L 576.78 405.94 L 577.87 405.94 L 578.96 405.94 L 580.04 405.94 L 581.13 405.94 L 582.22 405.94 L 583.31 405.93 L 584.40 405.93 L 585.49 405.93 L 586.58 405.93 L 587.67 405.93 L 588.76 405.93 L 589.85 405.93 L 590.94 405.93 L 592.03 405.93 L 593.12 405.93 L 594.21 405.93 L 595.30 405.93 L 596.39 405.93 L 597.47 405.93 L 598.56 405.93 L 599.65 405.93 L 600.74 405.93 L 601.83 405.93 L 602.92 405.93 L 604.01 405.93 L 605.10 405.93 L 606.19 405.93 L 607.28 405.93 L 608.37 405.93 L 609.46 405.92 L 610.55 405.92 L 611.64 405.92 L 612.73 405.92 L 613.82 405.91 L 614.91 405.91 L 615.99 405.91 L 617.08 405.90 L 618.17 405.90 L 619.26 405.90 L 620.35 406.00 L 621.44 405.99 L 622.53 405.98 L 623.62 405.98 L 624.71 405.97 L 625.80 405.97 L 626.89 405.97 L 627.98 405.97 L 629.07 405.96 L 630.16 405.96 L 631.25 405.96 L 632.34 405.96 L 633.42 405.96 L 634.51 405.96 L 635.60 405.96 L 636.69 405.95 L 637.78 405.95 L 638.87 405.95 L 639.96 405.95 L 641.05 405.95 L 642.14 405.95 L 643.23 405.95 L 644.32 405.95 L 645.41 405.95 L 646.50 405.95 L 647.59 405.95 L 648.68 405.94 L 649.77 405.93 L 650.85 405.91 L 651.94 405.89 L 653.03 405.88 L 654.12 405.87 L 655.21 405.85 L 656.30 405.84 L 657.39 405.83 L 658.48 405.82 L 659.57 405.81 L 660.66 405.80 L 661.75 405.79 L 662.84 405.79 L 663.93 405.78 L 665.02 405.77 L 666.11 405.75 L 667.20 405.73 L 668.28 405.69 L 669.37 405.63 L 670.46 405.58 L 671.55 405.52 L 672.64 405.40 L 673.73 405.15 L 674.82 404.57 L 675.91 403.64 L 677.00 403.80 L 678.09 400.29 L 679.18 395.76 L 680.27 390.87 L 681.36 384.89 L 682.45 378.81 L 683.54 372.85 L 684.63 367.54 L 685.72 362.72 L 686.80 357.49 L 687.89 353.54 L 688.98 350.49 L 690.07 348.58 L 691.16 347.28 L 692.25 346.27 L 693.34 345.10 L 694.43 344.05 L 695.52 343.26 L 696.61 342.63 L 697.70 341.74 L 698.79 341.00 L 699.88 340.28 L 700.97 339.65 L 702.06 339.04 L 703.15 338.48 L 704.23 337.89 L 705.32 337.11 L 706.41 336.29 L 707.50 335.54 L 708.59 334.83 L 709.68 334.16 L 710.77 333.67 L 711.86 333.18 L 712.95 332.52 L 714.04 331.32 L 715.13 329.21 L 716.22 325.91 L 717.31 322.73 L 718.40 318.04 L 719.49 313.35 L 720.58 308.12 L 721.66 300.39 L 722.75 291.11 L 723.84 281.16 L 724.93 273.06 L 726.02 262.86 L 727.11 249.53 L 728.20 236.94 L 729.29 220.95 L 730.38 206.86 L 731.47 195.97 L 732.56 186.00 L 733.65 400.10 L 734.74 393.98 L 735.83 385.65 L 736.92 376.62 L 738.01 365.98 L 739.09 354.77 L 740.18 345.03 L 741.27 337.18 L 742.36 330.55 L 743.45 322.95 L 744.54 314.84 L 745.63 308.21 L 746.72 302.95 L 747.81 300.56 L 748.90 299.30 L 749.99 298.43 L 751.08 297.93 L 752.17 297.72 L 753.26 297.56 L 754.35 297.42 L 755.44 297.31 L 756.53 297.22 L 757.61 297.14 L 758.70 297.07 L 759.79 296.99 L 760.88 296.90 L 761.97 296.77 L 763.06 296.61 L 764.15 296.43 L 765.24 296.25 L 766.33 296.07 L 767.42 295.90 L 768.51 295.78 L 769.60 295.64 L 770.69 295.46 L 771.78 295.25 L 772.87 295.01 L 773.96 294.86 L 775.04 294.45 L 776.13 294.08 L 777.22 293.66 L 778.31 293.32 L 779.40 292.91 L 780.49 292.42 L 781.58 291.92 L 782.67 291.03 L 783.76 289.92 L 784.85 287.63 L 785.94 283.37 L 787.03 274.39 L 788.12 254.27 L 789.21 223.96 L 790.30 392.47 L 791.39 376.03 L 792.47 367.33 L 793.56 362.12 L 794.65 359.36 L 795.74 357.59 L 796.83 356.77 L 797.92 355.33 L 799.01 354.44 L 800.10 353.49 L 801.19 352.45 L 802.28 351.52 L 803.37 350.65 L 804.46 350.11 L 805.55 349.67 L 806.64 349.23 L 807.73 348.83 L 808.82 348.54 L 809.91 348.30 L 810.99 348.44 L 812.08 347.83 L 813.17 347.67 L 814.26 347.53 L 815.35 347.42 L 816.44 347.32 L 817.53 347.23 L 818.62 347.12 L 819.71 347.03 L 820.80 346.92 L 821.89 346.81 L 822.98 346.69 L 824.07 346.59 L 825.16 346.49 L 826.25 346.38 L 827.34 346.25 L 828.42 346.07 L 829.51 345.81 L 830.60 345.52 L 831.69 345.14 L 832.78 344.57 L 833.87 343.70 L 834.96 342.50 L 836.05 340.19 L 837.14 334.72 L 838.23 326.69 L 839.32 312.90 L 840.41 294.13 L 841.50 277.53 L 842.59 263.39 L 843.68 249.79 L 844.77 237.76 L 845.85 229.41 L 846.94 402.84 L 848.03 399.02 L 849.12 394.91 L 850.21 388.88 L 851.30 377.99 L 852.39 362.30 L 853.48 347.25 L 854.57 334.75 L 855.66 326.53 L 856.75 321.32 L 857.84 317.09 L 858.93 313.56 L 860.02 311.23 L 861.11 310.08 L 862.20 309.56 L 863.28 309.23 L 864.37 309.01 L 865.46 308.87 L 866.55 308.80 L 867.64 308.75 L 868.73 308.72 L 869.82 308.69 L 870.91 308.67 L 872.00 308.65" class="series"/>
    <text x="92" y="436" class="tick">2012</text>
    <text x="872" y="436" text-anchor="end" class="tick">2026</text>
    

    <text x="28" y="456" class="panel-title">After: weekly incidence</text>
    <text x="28" y="480" class="subtitle">New output stores weekly incidence after differencing cumulative reports; negative corrections become null.</text>
    <line x1="92" y1="508" x2="92" y2="728" class="axis"/>
    <line x1="92" y1="728" x2="872" y2="728" class="axis"/>
    <line x1="92" y1="508" x2="872" y2="508" class="grid"/>
    <line x1="92" y1="618.0" x2="872" y2="618.0" class="grid"/>
    <text x="82" y="512" text-anchor="end" class="tick">318,220</text>
    <text x="82" y="622.0" text-anchor="end" class="tick">159,110</text>
    <text x="82" y="732" text-anchor="end" class="tick">0</text>
    <path d="M 92.00 727.52 L 93.09 727.69 L 94.18 727.80 L 95.27 727.83 L 96.36 727.78 L 97.45 727.74 L 98.55 727.63 L 99.64 727.52 L 100.73 727.24 L 101.82 726.95 L 102.91 726.04 L 104.00 723.99 L 105.09 720.40 L 106.18 716.63 L 107.27 715.11 L 108.36 687.06 L 109.45 650.69 L 110.55 603.12 L 111.64 605.18 L 112.73 636.77 L 113.82 672.05 L 114.91 680.35 L 116.00 686.01 L 117.09 692.49 L 118.18 700.22 L 119.27 704.93 L 120.36 713.07 L 121.45 718.41 L 122.55 721.14 L 123.64 718.15 L 124.73 717.60 L 125.82 719.97 L 126.91 721.41 L 128.00 721.61 L 129.09 723.83 L 130.18 725.58 L 131.27 726.54 L 132.36 727.10 L 133.45 727.41 L 134.55 727.55 L 135.64 727.67 L 136.73 727.75 L 137.82 727.84 L 138.91 727.90 L 140.00 727.93 L 141.09 727.93 L 142.18 727.95 L 143.27 727.76 L 144.36 727.94 L 145.45 727.95 L 146.55 727.93 L 147.64 727.92 L 148.73 727.92 L 149.82 727.89 L 150.91 727.87 L 152.00 727.91 L 153.09 727.81 L 154.18 727.72 L 155.27 727.63 L 156.36 727.51 L 157.45 727.09 L 158.55 726.51 L 159.64 725.72 L 160.73 725.18 L 161.82 723.27 L 162.91 721.54 L 164.00 721.16 L 165.09 709.26 L 166.18 687.63 L 167.27 643.06 L 168.36 609.96 L 169.45 622.64 L 170.55 630.90 L 171.64 633.84 L 172.73 630.48 L 173.82 649.41 L 174.91 649.64 L 176.00 664.26 L 177.09 686.34 L 178.18 707.63 L 179.27 712.89 L 180.36 712.05 L 181.45 714.28 L 182.55 719.54 L 183.64 724.19 L 184.73 725.17 L 185.82 726.09 L 186.91 726.82 L 188.00 727.42 L 189.09 727.55 L 190.18 727.65 L 191.27 727.76 L 192.36 727.78 L 193.45 727.83 L 194.55 727.86 L 195.64 727.91 L 196.73 727.91 L 197.82 727.92 L 198.91 727.93 L 200.00 727.94 L 201.09 727.91 L 202.18 727.88 L 203.27 727.82 L 204.36 727.86 L 205.45 727.76 L 206.55 727.77 L 207.64 727.79 L 208.73 727.85 L 209.82 727.75 L 210.91 727.48 L 212.00 727.23 L 213.09 726.74 L 214.18 724.80 L 215.27 721.49 L 216.36 716.10 L 217.45 702.73 L 218.55 676.27 L 219.64 636.99 L 220.73 658.78 L 221.82 614.41 L 222.91 600.86 L 224.00 592.69 L 225.09 627.90 L 226.18 662.90 L 227.27 685.95 L 228.36 699.67 L 229.45 707.85 L 230.55 713.22 L 231.64 714.83 L 232.73 714.19 L 233.82 719.02 L 234.91 720.64 L 236.00 722.63 L 237.09 721.26 L 238.18 718.88 L 239.27 723.27 L 240.36 725.51 L 241.45 725.97 L 242.55 726.25 L 243.64 726.65 L 244.73 727.15 L 245.82 727.41 L 246.91 727.56 L 248.00 727.63 L 249.09 727.65 L 250.18 727.68 L 251.27 727.67 L 252.36 727.74 L 253.45 727.78 L 254.55 725.82 L 255.64 727.83 L 256.73 727.82 L 257.82 727.79 L 258.91 727.79 L 260.00 727.77 L 261.09 727.80 L 262.18 727.83 L 263.27 727.85 L 264.36 727.77 L 265.45 727.74 L 266.55 727.66 L 267.64 727.63 L 268.73 727.54 L 269.82 727.51 L 270.91 727.36 L 272.00 727.42 L 273.09 727.28 L 274.18 726.86 L 275.27 726.43 L 276.36 725.41 L 277.45 725.03 L 278.55 721.11 L 279.64 713.87 L 280.73 691.85 L 281.82 650.66 L 282.91 609.28 L 284.00 590.60 L 285.09 600.17 L 286.18 604.27 L 287.27 606.75 L 288.36 631.09 L 289.45 655.95 L 290.55 680.08 L 291.64 690.87 L 292.73 698.90 L 293.82 710.68 L 294.91 713.49 L 296.00 719.44 L 297.09 723.76 L 298.18 725.65 L 299.27 726.25 L 300.36 727.01 L 301.45 727.40 L 302.55 727.54 L 303.64 727.75 L 304.73 727.88 L 305.82 727.89 L 306.91 727.91 L 308.00 727.90 L 309.09 727.94 L 310.18 727.94 L 311.27 727.94 L 312.36 727.91 L 313.45 727.94 L 314.55 727.91 L 315.64 727.89 L 316.73 727.82 L 317.82 727.87 L 318.91 727.40 L 320.00 727.45 L 321.09 727.22 L 322.18 727.20 L 323.27 726.72 L 324.36 716.13 L 325.45 725.98 L 326.55 725.13 L 327.64 723.24 L 328.73 721.88 L 329.82 719.46 L 330.91 716.62 L 332.00 710.80 L 333.09 699.29 L 334.18 699.30 L 335.27 691.99 L 336.36 675.62 L 337.45 629.65 L 338.55 592.73 L 339.64 596.95 L 340.73 630.08 L 341.82 645.72 L 342.91 669.91 L 344.00 681.35 L 345.09 689.90 L 346.18 692.71 L 347.27 701.45 L 348.36 704.74 L 349.45 710.80 L 350.55 714.27 L 351.64 713.92 L 352.73 717.30 L 353.82 721.02 L 354.91 723.24 L 356.00 724.41 L 357.09 725.69 L 358.18 726.55 L 359.27 726.92 L 360.36 727.12 L 361.45 727.20 L 362.55 727.30 L 363.64 727.37 L 364.73 727.31 L 365.82 727.35 L 366.91 727.36 L 368.00 727.31 L 369.09 727.44 L 370.18 727.53 L 371.27 727.58 L 372.36 727.43 L 373.45 727.38 L 374.55 727.25 L 375.64 727.38 L 376.73 727.29 L 377.82 727.27 L 378.91 727.44 L 380.00 727.12 L 381.09 726.78 L 382.18 726.33 L 383.27 726.21 L 384.36 725.36 L 385.45 722.97 L 386.55 719.15 L 387.64 714.06 L 388.73 702.63 L 389.82 683.88 L 390.91 668.39 L 392.00 672.74 L 393.09 637.49 L 394.18 550.14 L 395.27 548.31 L 396.36 541.98 L 397.45 572.89 L 398.55 625.58 L 399.64 650.25 L 400.73 668.23 L 401.82 686.74 L 402.91 698.37 L 404.00 709.68 L 405.09 716.41 L 406.18 721.12 L 407.27 722.31 L 408.36 721.99 L 409.45 723.82 L 410.55 725.89 L 411.64 726.55 L 412.73 726.64 L 413.82 727.09 L 414.91 727.36 L 416.00 727.60 L 417.09 727.72 L 418.18 727.70 L 419.27 727.67 L 420.36 727.70 L 421.45 727.75 L 422.55 727.81 L 423.64 727.82 L 424.73 727.82 L 425.82 727.87 L 426.91 727.82 L 428.00 727.88 L 429.09 727.82 L 430.18 727.77 L 431.27 727.54 L 432.36 727.54 L 433.45 727.45 L 434.55 727.41 L 435.64 727.56 L 436.73 727.33 L 437.82 727.26 L 438.91 726.42 L 440.00 726.81 L 441.09 726.70 L 442.18 726.22 L 443.27 724.82 L 444.36 722.16 L 445.45 716.51 L 446.55 700.60 L 447.64 690.10 L 448.73 673.99 L 449.82 596.22 L 450.91 542.17 L 452.00 531.72 L 453.09 579.11 L 454.18 638.00 L 455.27 684.55 L 456.36 697.16 L 457.45 707.64 L 458.55 713.84 L 459.64 717.97 L 460.73 719.48 L 461.82 722.07 L 462.91 722.99 L 464.00 722.26 L 465.09 719.31 L 466.18 720.69 L 467.27 724.57 L 468.36 725.44 L 469.45 724.84 L 470.55 725.86 L 471.64 726.31 L 472.73 726.81 L 473.82 727.14 L 474.91 727.32 L 476.00 727.38 L 477.09 727.41 L 478.18 727.37 L 479.27 727.36 L 480.36 727.46 L 481.45 727.34 L 482.55 727.29 L 483.64 727.22 L 484.73 727.20 L 485.82 726.67 L 486.91 725.36 L 488.00 724.01 L 489.09 724.02 L 490.18 726.22 L 491.27 722.51 L 492.36 724.94 L 493.45 725.53 L 494.55 725.25 L 495.64 724.77 L 496.73 724.47 L 497.82 721.70 L 498.91 717.35 L 500.00 709.02 L 501.09 695.18 L 502.18 674.41 L 503.27 655.18 L 504.36 648.29 L 505.45 683.37 L 506.55 665.07 L 507.64 670.45 L 508.73 666.07 L 509.82 679.43 L 510.91 697.04 L 512.00 702.13 L 513.09 707.11 L 514.18 711.34 L 515.27 717.26 L 516.36 723.56 L 517.45 726.16 L 518.55 727.07 L 519.64 727.48 L 520.73 727.70 L 521.82 727.84 L 522.91 727.92 L 524.00 727.96 L 525.09 727.98 L 526.18 727.99 L 527.27 727.99 L 528.36 727.99 L 529.45 727.99 L 530.55 728.00 L 531.64 728.00 L 532.73 727.99 L 533.82 727.99 L 534.91 727.99 L 536.00 728.00 L 537.09 728.00 L 538.18 727.99 L 539.27 728.00 L 540.36 728.00 L 541.45 728.00 L 542.55 728.00 L 543.64 728.00 L 544.73 728.00 L 545.82 728.00 L 546.91 728.00 L 548.00 728.00 L 549.09 727.99 L 550.18 727.99 L 551.27 727.98 L 552.36 727.98 L 553.45 727.98 L 554.55 727.98 L 555.64 727.97 L 556.73 727.97 L 557.82 727.95 L 558.91 727.96 L 560.00 727.95 L 561.09 727.95 L 562.18 727.95 L 563.27 727.95 L 564.36 727.96 L 565.45 727.96 L 566.55 727.96 L 567.64 727.93 L 568.73 727.96 L 569.82 727.97 L 570.91 727.97 L 572.00 727.98 L 573.09 727.97 L 574.18 727.98 L 575.27 727.98 L 576.36 727.98 L 577.45 727.99 L 578.55 727.99 L 579.64 727.99 L 580.73 727.99 L 581.82 727.99 L 582.91 727.99 L 584.00 727.99 L 585.09 728.00 L 586.18 727.99 L 587.27 728.00 L 588.36 728.00 L 589.45 728.00 L 590.55 727.99 L 591.64 728.00 L 592.73 728.00 L 593.82 728.00 L 594.91 728.00 L 596.00 728.00 L 597.09 728.00 L 598.18 728.00 L 599.27 728.00 L 600.36 728.00 L 601.45 728.00 L 602.55 728.00 L 603.64 728.00 L 604.73 728.00 L 605.82 727.99 L 606.91 727.99 L 608.00 727.99 L 609.09 727.99 L 610.18 727.98 L 611.27 727.98 L 612.36 727.99 L 613.45 727.98 L 614.55 727.98 L 615.64 727.98 L 616.73 727.98 L 617.82 727.97 L 618.91 727.97 L 620.00 727.97 L 621.09 727.97 L 622.18 727.96 L 623.27 727.96 L 624.36 727.97 L 625.45 727.98 L 626.55 727.98 L 627.64 727.98 L 628.73 727.99 L 629.82 727.99 L 630.91 727.99 L 632.00 727.99 L 633.09 727.99 L 634.18 727.99 L 635.27 728.00 L 636.36 727.99 L 637.45 727.99 L 638.55 727.99 L 639.64 728.00 L 640.73 728.00 L 641.82 727.99 L 642.91 728.00 L 644.00 728.00 L 645.09 728.00 L 646.18 728.00 L 647.27 727.99 L 648.36 727.97 L 649.45 727.90 L 650.55 727.85 L 651.64 727.90 L 652.73 727.89 L 653.82 727.92 L 654.91 727.90 L 656.00 727.91 L 657.09 727.90 L 658.18 727.91 L 659.27 727.92 L 660.36 727.95 L 661.45 727.96 L 662.55 727.95 L 663.64 727.93 L 664.73 727.93 L 665.82 727.89 L 666.91 727.81 L 668.00 727.71 L 669.09 727.62 L 670.18 727.62 L 671.27 727.55 L 672.36 727.14 L 673.45 726.21 L 674.55 723.78 L 675.64 721.21 L 676.73 712.00 L 677.82 702.58 L 678.91 695.12 L 680.00 692.50 L 681.09 684.60 L 682.18 683.84 L 683.27 684.78 L 684.36 689.47 L 685.45 692.99 L 686.55 690.03 L 687.64 699.40 L 688.73 705.84 L 689.82 714.14 L 690.91 718.59 L 692.00 720.64 L 693.09 719.49 L 694.18 720.42 L 695.27 722.24 L 696.36 723.40 L 697.45 721.59 L 698.55 722.45 L 699.64 722.82 L 700.73 723.39 L 701.82 723.61 L 702.91 723.93 L 704.00 723.69 L 705.09 722.36 L 706.18 722.03 L 707.27 722.58 L 708.36 722.52 L 709.45 723.11 L 710.55 724.48 L 711.64 724.43 L 712.73 723.21 L 713.82 719.28 L 714.91 712.70 L 716.00 704.01 L 717.09 704.91 L 718.18 694.00 L 719.27 693.96 L 720.36 690.06 L 721.45 671.88 L 722.55 660.63 L 723.64 655.80 L 724.73 669.21 L 725.82 654.03 L 726.91 631.25 L 728.00 636.59 L 729.09 612.00 L 730.18 625.71 L 731.27 649.00 L 732.36 655.63 L 733.45 685.19 L 734.55 683.54 L 735.64 667.57 L 736.73 662.50 L 737.82 650.77 L 738.91 646.61 L 740.00 657.35 L 741.09 670.77 L 742.18 679.91 L 743.27 672.84 L 744.36 669.10 L 745.45 679.90 L 746.55 689.84 L 747.64 710.64 L 748.73 718.83 L 749.82 721.70 L 750.91 724.38 L 752.00 726.47 L 753.09 726.83 L 754.18 727.03 L 755.27 727.19 L 756.36 727.34 L 757.45 727.40 L 758.55 727.48 L 759.64 727.44 L 760.73 727.33 L 761.82 727.04 L 762.91 726.86 L 764.00 726.72 L 765.09 726.69 L 766.18 726.64 L 767.27 726.80 L 768.36 727.10 L 769.45 727.00 L 770.55 726.70 L 771.64 726.47 L 772.73 726.25 L 773.82 726.11 L 774.91 725.02 L 776.00 725.33 L 777.09 724.96 L 778.18 725.50 L 779.27 725.03 L 780.36 724.46 L 781.45 724.37 L 782.55 721.56 L 783.64 719.93 L 784.73 711.37 L 785.82 697.10 L 786.91 662.80 L 788.00 582.05 L 789.09 508.00 L 790.18 629.83 L 791.27 608.63 L 792.36 664.86 L 793.45 690.22 L 794.55 707.97 L 795.64 715.13 L 796.73 719.11 L 797.82 717.54 L 798.91 721.53 L 800.00 721.13 L 801.09 720.42 L 802.18 721.28 L 803.27 721.70 L 804.36 724.08 L 805.45 724.81 L 806.55 724.80 L 807.64 725.09 L 808.73 725.91 L 809.82 726.21 L 810.91 726.07 L 812.00 723.57 L 813.09 726.84 L 814.18 727.02 L 815.27 727.21 L 816.36 727.28 L 817.45 727.29 L 818.55 727.24 L 819.64 727.34 L 820.73 727.21 L 821.82 727.16 L 822.91 727.19 L 824.00 727.24 L 825.09 727.31 L 826.18 727.19 L 827.27 727.07 L 828.36 726.65 L 829.45 726.12 L 830.55 725.86 L 831.64 725.28 L 832.73 723.84 L 833.82 721.72 L 834.91 719.28 L 836.00 711.21 L 837.09 688.30 L 838.18 669.76 L 839.27 627.87 L 840.36 591.82 L 841.45 607.55 L 842.55 625.36 L 843.64 629.28 L 844.73 640.70 L 845.82 667.42 L 846.91 705.04 L 848.00 700.34 L 849.09 698.17 L 850.18 684.21 L 851.27 648.97 L 852.36 614.10 L 853.45 618.83 L 854.55 637.27 L 855.64 668.31 L 856.73 690.20 L 857.82 697.35 L 858.91 702.35 L 860.00 711.08 L 861.09 719.64 L 862.18 724.23 L 863.27 725.61 L 864.36 726.41 L 865.45 726.96 L 866.55 727.54 L 867.64 727.63 L 868.73 727.76 L 869.82 727.82 L 870.91 727.83 L 872.00 727.81" class="series"/>
    <text x="92" y="758" class="tick">2012</text>
    <text x="872" y="758" text-anchor="end" class="tick">2026</text>
    
</svg>
